<svg id="Calque_1" data-name="Calque 1" xmlns="http://www.w3.org/2000/svg" width="15.67" height="14.58" viewBox="0 0 15.67 14.58">
  <defs>
    <style>
      .cls-1 {
        fill: #9fce90;
      }

      .cls-2 {
        fill: #27a574;
      }
    </style>
  </defs>
  <title>16-16</title>
  <g>
    <g>
      <path class="cls-1" d="M14,2.45a5,5,0,0,1,.6.62,8.22,8.22,0,0,1,.57.85,5.81,5.81,0,0,1,.44,1.13,6.76,6.76,0,0,1,.2,1.24,9.27,9.27,0,0,1,0,1.08,8.32,8.32,0,0,1-.32,1.45,9.44,9.44,0,0,1-.61,1.41,8.85,8.85,0,0,1-1,1.45,4.57,4.57,0,0,1-.86.84s-1.68,1.25-3.13.27a6.21,6.21,0,0,0,1.59-1.06,10.63,10.63,0,0,0,1.19-1.22,8,8,0,0,0,1.15-1.84,7.92,7.92,0,0,0,.46-1.49,7.1,7.1,0,0,0,0-1.78,4.69,4.69,0,0,0-.53-1.49A3,3,0,0,0,14,2.45Z" transform="translate(-0.16 -0.71)"/>
      <path class="cls-1" d="M9.85.85a8.93,8.93,0,0,0-2.4.25,9.86,9.86,0,0,0-2.18.82,10.35,10.35,0,0,0-2,1.33A11.17,11.17,0,0,0,1.73,4.94a9.32,9.32,0,0,0-1,1.84,6.88,6.88,0,0,0-.43,4A4.74,4.74,0,0,0,.76,12.1a5.16,5.16,0,0,0,1,1.42,5.87,5.87,0,0,0,2,1.27,7.16,7.16,0,0,0,2.92.49,7.33,7.33,0,0,0,2.22-.45,3.16,3.16,0,0,1-2.05-1,4.62,4.62,0,0,1-2.15-.05,5.61,5.61,0,0,1-2-.76,3.55,3.55,0,0,1-1.12-1,4.81,4.81,0,0,1-.71-1.34A4.83,4.83,0,0,1,.64,9.14,6.31,6.31,0,0,1,.86,7.56a8.7,8.7,0,0,1,.61-1.47A10,10,0,0,1,2.4,4.74,11,11,0,0,1,3.69,3.48a9.55,9.55,0,0,1,1.5-1A10.91,10.91,0,0,1,7,1.75a8.51,8.51,0,0,1,2-.3Z" transform="translate(-0.16 -0.71)"/>
    </g>
    <path class="cls-2" d="M10.37,13.69a2.88,2.88,0,0,0,1.46-.15,3.21,3.21,0,0,0,1.33-.87l.08.21a4.43,4.43,0,0,1-1.94,1.35,4.15,4.15,0,0,1-2.16.24H9.09a2.8,2.8,0,0,1-1.91-1.28C6.28,11.82,6,9.92,6.46,7.5A12.9,12.9,0,0,1,7.58,4,7.05,7.05,0,0,1,9.63,1.47,3.33,3.33,0,0,1,12.32.76c1.1.19,1.53,1,1.29,2.29a11,11,0,0,1-2,4.16A20,20,0,0,1,8,11.27,3.1,3.1,0,0,0,10.37,13.69Zm2-10.31q.33-1.89-1-2.13c-.79-.14-1.51.28-2.15,1.27A10.68,10.68,0,0,0,7.79,6.45,10.55,10.55,0,0,0,7.91,11a16.68,16.68,0,0,0,2.75-3.56A12.32,12.32,0,0,0,12.35,3.38Z" transform="translate(-0.16 -0.71)"/>
  </g>
</svg>
